<?xml version="1.0" encoding="utf-8"?>
<!-- Generator: Adobe Illustrator 19.0.0, SVG Export Plug-In . SVG Version: 6.00 Build 0)  -->
<svg version="1.1" id="Layer_1" xmlns="http://www.w3.org/2000/svg" xmlns:xlink="http://www.w3.org/1999/xlink" x="0px" y="0px"
	 viewBox="0 0 640 355" enable-background="new 0 0 640 355" xml:space="preserve">
<g>
	<path fill="#FFFFFF" d="M84.5,56.1c13.7,0,27.3-0.2,41,0.1c23.8,0.5,44.8,8.1,61.5,25.6c11.5,12,18.4,26.7,19.8,43
		c1.2,14.2-0.2,28.7-0.6,43c-0.2,7.1-0.6,14.3-1,21.4c-1,14.8-1.5,29.6-6.7,43.8c-12.6,34.5-36.6,55.8-72.5,63.4
		c-4.7,1-9.5,1.1-14.3,1.2c-17.5,0.1-35,0-52.5,0c-4.9,0-6.7,1.9-7,6.8c-0.6,9.9-1.2,19.8-2,29.7c-0.5,6.3-4.9,12.6-11.3,13.3
		c-8.1,0.9-16.5,0.8-24.5-0.1c-5.8-0.7-8.9-5.6-8.5-11.6c0.8-15,1.9-30,2.9-45c0.4-5.3,0.7-10.5,1-15.8c1-17.3,2-34.7,3.1-52
		c0.9-14.2,2-28.3,3-42.5c1.3-19.3,2.7-38.5,4-57.8c1-14.3,1.7-28.7,3.1-42.9c0.6-6.5-0.7-14.1,5.8-18.6c3.3-2.3,7.5-4.5,11.4-4.6
		C54.9,55.7,69.7,56,84.5,56.1z M89.9,252.4c0,0,0-0.1,0-0.1c8,0,16-0.1,24,0c22.8,0.2,42.1-18.9,44.2-42.7
		c1.1-12.1,2.1-24.2,3-36.2c0.7-10.1,1.4-20.2,1.8-30.4c0.8-24.4-17.2-42.9-40-42.6c-9.3,0.1-18.6-0.8-27.9-0.8
		c-8.1,0-16.2,0.3-24.2,1c-1.6,0.2-4,2.7-4.4,4.5c-0.9,4.8-0.9,9.9-1.2,14.8c-1.3,19-2.6,38-3.9,57c-0.7,10.9-1.5,21.8-2.2,32.8
		c-0.8,12.1-1.6,24.2-2.5,36.2c-0.3,4.7,1.5,6.7,6.3,6.5C71.9,252.2,80.9,252.4,89.9,252.4z"/>
	<path fill="#FFFFFF" d="M419.5,349.1c-3.8,0-7.7,0-11.5,0c-3.9,0-7.8-0.3-9.9-4.2c-2.2-4.1-0.4-7.8,1.9-11.2
		c5.3-7.9,10.8-15.6,16.1-23.3c30-43.3,59.9-86.6,89.9-129.8c4.1-6,3.6-11.6,0.3-17.7c-16.6-30.2-33-60.5-49.4-90.9
		c-5.6-10.3-1.7-16.2,10.2-16.3c5.3,0,10.7,0.3,16-0.1c10.2-0.8,16.6,4,21.1,12.6c9.5,18.3,19.1,36.4,28.7,54.7
		c0.3,0.6,0.6,1.2,1,1.8c3.5,6.1,7.2,6.3,11.2,0.3c8.8-13.1,17.3-26.4,26-39.6c5-7.6,10.1-15.2,15.4-22.7c3.7-5.2,9.3-7.5,15.5-7.6
		c7.2-0.1,14.4-0.5,21.5,0.1c3.3,0.3,7.3,1.8,9.3,4.2c2.8,3.3,1.2,7.5-1.2,11.1c-20.9,30.2-41.6,60.5-62.6,90.6
		c-5.5,7.9-6,15-1.2,23.5c18.1,32,35.8,64.2,53.6,96.3c1.2,2.1,2.2,4.5,2.5,6.9c0.7,6.2-2.5,9.9-8.7,10.1c-9,0.2-18,0.4-27,0
		c-8.1-0.4-12.5-6.4-16-12.7c-7.3-13.4-14.1-26.9-21.1-40.4c-4.1-7.9-8.1-15.9-12.3-23.8c-3.6-6.7-7-6.8-11.2-0.5
		c-24.2,36.8-48.4,73.7-72.7,110.6c-1.5,2.4-3.1,4.7-4.8,7c-5.5,7.2-12.3,12-22,11C425.2,348.9,422.3,349.1,419.5,349.1z"/>
	<path fill="#FFFFFF" d="M275.9,213.4c1.6-20.2,3.1-39.5,4.6-58.8c0.4-5.8,0.7-11.6,1.1-17.4c1.3-18.6,2.7-37.3,4-55.9
		c0.3-4.3,0.4-8.6,1.1-12.8c1.1-6.7,5.3-11.3,11.9-12.1c7.1-0.9,14.4-0.9,21.4-0.1c8.1,1,12.2,8.5,10.9,17.6
		c-0.8,6.2-1.4,12.5-1.8,18.7c-1.4,22.7-2.7,45.3-4.1,68c-1.1,16.2-3,32.4-3.5,48.6c-0.5,17.6,6.3,38.1,23.7,44.8
		c24.5,9.5,58.3,5.7,69.5-31.2c3.2-10.5,3.7-21.9,4.7-32.9c1.6-17.7,2.5-35.5,3.9-53.2c1.3-16.9,2.7-33.7,4.2-50.5
		c0.6-6.7,1.2-13.4,2.1-20.1c0.2-1.8,1.4-3.7,2.7-5.1c5-5.5,6.4-5.1,10,1.3c8.3,14.8,17,29.4,25.2,44.4c1.8,3.3,3,7.5,2.8,11.2
		c-1.6,29.4-3.7,58.8-5.6,88.2c-3,45.8-32.5,83.7-75,94.4c-29.2,7.4-57.1,4.1-81.6-15.3c-16.2-12.8-25.6-29.9-29.5-49.9
		C277.1,227.8,276.7,220.2,275.9,213.4z"/>
	<path fill="#FFFFFF" d="M247.4,5.7c3.7,0.4,7.6,0.4,11.2,1.3c6.3,1.6,9.6,5.8,9.3,12.1c-0.7,13.2-1.9,26.3-2.8,39.5
		c-0.4,5.1-0.7,10.2-1,15.3c-0.7,12.9-1.2,25.8-2.1,38.7c-1.3,20-2.7,40-4,59.9c-1,14.2-2,28.4-2.9,42.6c-0.5,7.8-1,15.6-0.9,23.4
		c0.1,7.8,5.1,12.9,12.7,14c12.6,1.8,15.9,6.2,14.7,19.2c-0.4,4.5-0.4,9-1.1,13.4c-1,6.9-6.2,12.3-13,12.4
		c-16.7,0.4-32.6-2.4-44.6-15.5c-8.3-9.1-11.7-20.4-13.4-32.3c-2.3-16.9,0.8-33.7,2-50.4c0.4-5.4,0.7-10.9,1.1-16.3
		c1.3-19,2.7-37.9,4-56.9c0.8-11.7,1.3-23.5,2.1-35.2c1.2-16.8,2.6-33.5,3.9-50.3c0.4-5.8,1.2-11.6,1-17.3
		c-0.4-9.3,6.4-17.7,17.7-17.3c2,0.1,4,0,6,0C247.4,6,247.4,5.8,247.4,5.7z"/>
</g>
</svg>
