<?xml version="1.0" encoding="utf-8"?>
<!-- Generator: Adobe Illustrator 19.0.0, SVG Export Plug-In . SVG Version: 6.00 Build 0)  -->
<svg version="1.1" id="Layer_1" xmlns="http://www.w3.org/2000/svg" xmlns:xlink="http://www.w3.org/1999/xlink" x="0px" y="0px"
	 viewBox="-106.3 383.6 110.8 26.8" style="enable-background:new -106.3 383.6 110.8 26.8;" xml:space="preserve">
<style type="text/css">
	.st0{fill:#B7B7B7;}
	.st1{fill:#FFFFFF;}
</style>
<g id="XMLID_8_">
	<polygon id="XMLID_9_" class="st0" points="-14.4,384.2 -23.6,384.2 -17.5,392.2 -23.5,400.1 -14.3,400.1 -8.6,392.4 -8.6,392 	"/>
	<g id="XMLID_2_">
		<polygon id="XMLID_4_" class="st0" points="-1.7,384.2 -10.9,384.2 -4.8,392.2 -10.8,400.1 -1.6,400.1 4.2,392.4 4.2,392 		"/>
	</g>
</g>
<g>
	<path class="st1" d="M-23.9,403.7h1.8l1.5,2.4l1.5-2.4h1.8v6.3H-19v-3.6l-1.6,2.5l0,0l-1.6-2.4v3.6h-1.7
		C-23.9,410.1-23.9,403.7-23.9,403.7z"/>
	<path class="st1" d="M-16.6,403.7h5.1v1.5h-3.3v1h3v1.4h-3v1h3.4v1.5h-5.1v-6.4H-16.6z"/>
	<path class="st1" d="M-11,403.7h2.4c2.3,0,3.6,1.3,3.6,3.1l0,0c0,1.8-1.3,3.2-3.6,3.2H-11C-11,410-11,403.7-11,403.7z M-8.6,408.5
		c1,0,1.7-0.6,1.7-1.6l0,0c0-1-0.7-1.6-1.7-1.6h-0.7v3.2H-8.6z"/>
	<path class="st1" d="M-4.6,403.7h1.8v6.3h-1.8V403.7z"/>
	<path class="st1" d="M0.1,403.7h1.7l2.7,6.3H2.6l-0.5-1.1h-2.4l-0.5,1.1h-1.8L0.1,403.7z M1.6,407.5l-0.7-1.8l-0.7,1.8H1.6z"/>
</g>
<g>
	<path class="st1" d="M-106.3,384h7.2v19.6h12.5v6.3h-19.7V384z"/>
	<path class="st1" d="M-83.7,390.3h-7.8V384h22.7v6.3h-7.8v19.6h-7.2V390.3z"/>
	<path class="st1" d="M-68.3,384h7.2v10.5l8.9-10.5h8.5l-9.8,11.1l10.1,14.8H-52l-6.5-9.6l-2.6,2.9v6.7h-7.2V384z"/>
	<path class="st1" d="M-46.4,406.1l4-4.8c2.6,2,5.4,3.1,8.4,3.1c1.9,0,3-0.7,3-1.8v-0.1c0-1.1-0.9-1.7-4.4-2.5
		c-5.5-1.3-9.8-2.8-9.8-8.1v-0.1c0-4.8,3.8-8.3,10-8.3c4.4,0,7.8,1.2,10.7,3.4l-3.6,5.1c-2.4-1.7-5-2.6-7.3-2.6
		c-1.7,0-2.6,0.7-2.6,1.7v0.1c0,1.2,0.9,1.7,4.5,2.5c6,1.3,9.7,3.2,9.7,8.1v0.1c0,5.3-4.2,8.4-10.5,8.4
		C-38.9,410.3-43.3,408.9-46.4,406.1z"/>
</g>
</svg>
